<svg version="1.1" id="Layer_1" xmlns="http://www.w3.org/2000/svg" xmlns:xlink="http://www.w3.org/1999/xlink" x="0px" y="0px"
	 width="100%" viewBox="0 0 485 112" enable-background="new 0 0 485 112" xml:space="preserve">
<path fill="#028181" opacity="1.000000" stroke="none" 
	d="
M486.000000,2.000000 
	C486.000000,38.977093 486.000000,75.954185 486.000000,112.965637 
	C324.456329,112.965637 162.912643,112.965637 1.000000,112.965637 
	C1.000000,76.313263 1.000000,39.625290 1.463872,2.464952 
	C163.285156,1.995060 324.642578,1.997530 486.000000,2.000000 
M41.239204,39.799992 
	C40.393044,40.331009 39.604370,41.007057 38.691196,41.369011 
	C33.579350,43.395180 32.489731,47.139526 32.687153,52.408321 
	C33.117378,63.890072 32.820072,75.399086 32.820076,86.896957 
	C32.820076,89.145241 32.820080,91.393532 32.820080,95.185600 
	C35.609894,93.471596 37.446152,92.797768 38.646915,91.524590 
	C43.103622,86.799141 47.183201,81.708405 51.771378,77.121956 
	C53.303776,75.590141 55.902725,74.453506 58.070942,74.352211 
	C65.330505,74.013031 72.615753,74.223503 80.242744,74.223503 
	C80.242744,65.198837 80.242744,56.730213 80.242744,48.261589 
	C80.242744,39.879337 80.242744,31.497086 80.242744,22.203342 
	C94.150772,29.266249 107.064018,35.726345 119.825752,42.473042 
	C120.959702,43.072521 121.568481,45.517944 121.636612,47.139008 
	C122.007408,55.961182 121.704010,64.831902 122.487358,73.609634 
	C123.037315,79.772133 120.333405,83.810371 116.178680,87.411232 
	C112.316498,90.758553 108.876266,90.725471 105.003899,87.327660 
	C101.011322,83.824341 98.366989,79.832298 98.603386,73.978462 
	C99.003784,64.063309 98.713402,54.120262 98.713402,44.188942 
	C97.828934,44.006794 96.944458,43.824646 96.059990,43.642498 
	C95.412025,45.090874 94.208504,46.538784 94.207291,47.987698 
	C94.200073,56.650677 94.884628,65.331940 94.508698,73.971016 
	C94.233734,80.289696 96.788895,84.852699 100.944855,88.960716 
	C104.827057,92.798134 109.324402,95.650833 114.786446,92.845047 
	C120.852890,89.728783 126.254211,85.136055 126.456726,77.849998 
	C126.766418,66.707893 125.890945,55.536987 125.746193,44.375355 
	C125.707466,41.388466 124.422104,40.044441 121.909798,38.791656 
	C108.356949,32.033401 94.855530,25.167961 81.440285,18.141123 
	C78.680870,16.695763 76.744919,16.961481 74.216301,18.624832 
	C63.505379,25.670578 52.643364,32.486633 41.239204,39.799992 
M151.564529,80.159683 
	C152.601151,74.209457 156.035797,71.949387 162.009155,72.971634 
	C164.434647,73.386711 167.016220,73.265221 169.480698,72.984016 
	C172.729416,72.613335 174.231186,73.944809 175.178284,76.969093 
	C175.693466,78.614227 177.114532,80.891312 178.477188,81.169777 
	C181.562164,81.800201 184.864288,81.368103 188.573959,81.368103 
	C182.399261,65.761444 176.409439,51.152920 170.899231,36.365665 
	C169.282669,32.027439 166.286011,33.123913 163.321823,32.909317 
	C160.311172,32.691368 158.240005,33.067760 156.923431,36.593029 
	C151.807312,50.292019 146.253189,63.827248 140.890152,77.434479 
	C140.443695,78.567207 140.207062,79.782639 139.678116,81.645927 
	C143.932541,81.331345 147.511749,81.066689 151.564529,80.159683 
M422.089111,57.330936 
	C422.089111,49.250816 422.089111,41.170696 422.089111,33.191986 
	C418.042450,33.191986 414.771729,33.191986 411.258057,33.191986 
	C411.258057,44.060497 410.652863,54.713795 411.425659,65.266174 
	C412.222931,76.152458 419.960632,82.265678 431.102875,82.362373 
	C442.563446,82.461815 450.331543,76.473488 451.204285,65.260918 
	C452.024750,54.719604 451.380127,44.064259 451.380127,33.208313 
	C447.870361,33.208313 444.486694,33.208313 440.712921,33.208313 
	C440.712921,38.109390 440.795807,42.740582 440.692230,47.367599 
	C440.558441,53.345356 440.627808,59.360706 439.939728,65.282013 
	C439.437195,69.606232 436.197113,71.756020 431.815247,71.899139 
	C427.295410,72.046776 423.955688,70.265213 422.854004,65.676208 
	C422.280304,63.286446 422.324585,60.748329 422.089111,57.330936 
M369.293396,47.653561 
	C360.509827,54.798435 358.693420,66.574928 365.048401,75.175797 
	C371.379211,83.743950 381.901062,84.488899 393.716736,76.982307 
	C393.998260,80.164368 394.878113,82.744232 398.910645,80.940544 
	C398.910645,64.116402 398.910645,47.248489 398.910645,30.372932 
	C396.985596,30.372932 395.395111,30.372932 393.083740,30.372932 
	C393.083740,36.771137 393.083740,42.918320 393.083740,49.706764 
	C385.237427,43.827156 377.761627,43.121922 369.293396,47.653561 
M288.090942,44.776730 
	C277.733307,46.395565 271.833130,53.227325 271.894653,63.530251 
	C271.954163,73.497864 278.101044,80.933479 287.225372,82.075050 
	C296.843903,83.278458 304.981079,78.849686 307.559082,69.572525 
	C304.089600,71.215340 301.391907,72.024162 299.261902,73.600235 
	C295.020996,76.738235 290.572296,77.695503 285.648346,75.960701 
	C281.187073,74.388893 278.729218,71.124245 278.025482,65.856293 
	C288.352631,65.856293 298.409637,65.856293 308.394836,65.856293 
	C309.799744,53.137802 301.862579,44.765373 288.090942,44.776730 
M322.239227,81.400818 
	C323.066071,80.306969 324.549164,79.246666 324.607117,78.113495 
	C324.870483,72.961761 324.609161,67.785706 324.768066,62.625530 
	C325.003326,54.984642 329.629852,50.048641 336.212189,50.152836 
	C342.530151,50.252850 346.040833,54.570114 346.142395,62.553799 
	C346.220154,68.663292 346.157867,74.774567 346.157867,81.062454 
	C348.415619,81.062454 350.143677,81.062454 351.994263,81.062454 
	C351.994263,73.569992 352.306763,66.396942 351.919769,59.261818 
	C351.362793,48.991772 343.909027,43.081379 333.891449,45.014614 
	C330.508575,45.667454 327.401489,47.749439 325.391479,48.637733 
	C323.332031,47.169590 321.684540,45.995102 320.037018,44.820614 
	C319.635590,45.181870 319.234131,45.543125 318.832703,45.904381 
	C318.832703,57.034210 318.785431,68.164711 318.942841,79.292305 
	C318.952942,80.007309 320.544861,80.699936 322.239227,81.400818 
M195.698257,52.731087 
	C195.698257,62.181564 195.698257,71.632042 195.698257,81.465401 
	C197.991028,81.325165 199.701202,81.220558 201.568130,81.106369 
	C201.568130,75.850624 201.552795,71.194443 201.571121,66.538399 
	C201.618332,54.544342 203.999008,51.909451 215.746353,50.760479 
	C216.022018,50.733521 216.266922,50.391853 216.772247,50.011990 
	C216.698029,48.741066 216.614243,47.306580 216.517822,45.655941 
	C210.552170,44.696804 205.616745,46.275944 201.084564,50.591217 
	C200.994400,46.653362 200.223007,44.137516 195.698273,45.982224 
	C195.698273,47.861393 195.698273,49.833534 195.698257,52.731087 
M231.002518,48.396637 
	C231.001434,44.614082 228.610046,45.335747 226.134918,45.577404 
	C226.134918,57.607319 226.134918,69.311432 226.134918,81.405762 
	C228.171494,81.308090 229.892349,81.225571 231.780151,81.135040 
	C231.780151,77.772652 231.776016,74.950676 231.781296,72.128716 
	C231.786880,69.135849 231.705795,66.139008 231.830399,63.150909 
	C232.172104,54.957527 235.741959,51.357601 243.769836,50.934067 
	C244.721649,50.883854 245.666946,50.710030 246.950058,50.552364 
	C246.819489,48.736076 246.708359,47.189945 246.581314,45.422607 
	C241.393692,45.294464 236.850418,45.504421 233.141449,49.101982 
	C232.773926,49.458469 231.781250,49.170467 231.002518,48.396637 
M261.912079,59.509266 
	C261.912079,54.934059 261.912079,50.358849 261.912079,45.782486 
	C259.560730,45.782486 257.867340,45.782486 256.169220,45.782486 
	C256.169220,57.760307 256.169220,69.310867 256.169220,81.095757 
	C258.101624,81.095757 259.825836,81.095757 261.912079,81.095757 
	C261.912079,74.028015 261.912079,67.267166 261.912079,59.509266 
M261.375153,31.104500 
	C259.188202,31.655241 256.665466,31.744249 254.973053,32.974987 
	C254.256317,33.496208 254.657608,37.052761 255.691666,38.070488 
	C256.767090,39.128899 259.622803,39.588455 260.990906,38.900246 
	C264.360626,37.205185 264.333466,34.347557 261.375153,31.104500 
z"/>
<path fill="#64B2B2" opacity="1.000000" stroke="none" 
	d="
M486.000000,1.500000 
	C324.642578,1.997530 163.285156,1.995060 1.463872,1.996295 
	C2.333333,1.666667 3.666113,1.044977 5.000082,1.042416 
	C33.999973,0.986736 63.000000,1.000000 92.000000,1.000000 
	C223.333328,1.000000 354.666656,1.000000 486.000000,1.500000 
z"/>
<path fill="#EEF7F7" opacity="1.000000" stroke="none" 
	d="
M41.537884,39.593307 
	C52.643364,32.486633 63.505379,25.670578 74.216301,18.624832 
	C76.744919,16.961481 78.680870,16.695763 81.440285,18.141123 
	C94.855530,25.167961 108.356949,32.033401 121.909798,38.791656 
	C124.422104,40.044441 125.707466,41.388466 125.746193,44.375355 
	C125.890945,55.536987 126.766418,66.707893 126.456726,77.849998 
	C126.254211,85.136055 120.852890,89.728783 114.786446,92.845047 
	C109.324402,95.650833 104.827057,92.798134 100.944855,88.960716 
	C96.788895,84.852699 94.233734,80.289696 94.508698,73.971016 
	C94.884628,65.331940 94.200073,56.650677 94.207291,47.987698 
	C94.208504,46.538784 95.412025,45.090874 96.059990,43.642498 
	C96.944458,43.824646 97.828934,44.006794 98.713402,44.188942 
	C98.713402,54.120262 99.003784,64.063309 98.603386,73.978462 
	C98.366989,79.832298 101.011322,83.824341 105.003899,87.327660 
	C108.876266,90.725471 112.316498,90.758553 116.178680,87.411232 
	C120.333405,83.810371 123.037315,79.772133 122.487358,73.609634 
	C121.704010,64.831902 122.007408,55.961182 121.636612,47.139008 
	C121.568481,45.517944 120.959702,43.072521 119.825752,42.473042 
	C107.064018,35.726345 94.150772,29.266249 80.242744,22.203342 
	C80.242744,31.497086 80.242744,39.879337 80.242744,48.261589 
	C80.242744,56.730213 80.242744,65.198837 80.242744,74.223503 
	C72.615753,74.223503 65.330505,74.013031 58.070942,74.352211 
	C55.902725,74.453506 53.303776,75.590141 51.771378,77.121956 
	C47.183201,81.708405 43.103622,86.799141 38.646915,91.524590 
	C37.446152,92.797768 35.609894,93.471596 32.820080,95.185600 
	C32.820080,91.393532 32.820076,89.145241 32.820076,86.896957 
	C32.820072,75.399086 33.117378,63.890072 32.687153,52.408321 
	C32.489731,47.139526 33.579350,43.395180 38.691196,41.369011 
	C39.604370,41.007057 40.393044,40.331009 41.537884,39.593307 
M53.910522,68.402908 
	C60.552090,60.954597 67.216187,53.526119 73.810036,46.035801 
	C74.759041,44.957775 75.987999,43.603939 76.032906,42.340260 
	C76.259560,35.962646 76.137062,29.572630 76.137062,22.414499 
	C74.247238,23.535774 73.124924,24.158758 72.045448,24.848763 
	C60.841633,32.010242 49.603539,39.120255 38.513824,46.454529 
	C37.480473,47.137943 36.974560,49.252411 36.946381,50.716339 
	C36.795948,58.531075 36.875378,66.350235 36.875328,74.167862 
	C36.875301,78.193253 36.875320,82.218643 36.875320,87.486107 
	C43.061043,80.556313 48.250309,74.742828 53.910522,68.402908 
M61.932507,70.172935 
	C66.528137,70.172935 71.123772,70.172935 75.784180,70.172935 
	C75.784180,63.376343 75.784180,57.104862 75.784180,49.977386 
	C70.117256,56.328644 65.075890,62.009499 59.994888,67.654678 
	C58.469528,69.349403 58.650066,70.188057 61.932507,70.172935 
z"/>
<path fill="#F9FCFC" opacity="1.000000" stroke="none" 
	d="
M151.327744,80.480850 
	C147.511749,81.066689 143.932541,81.331345 139.678116,81.645927 
	C140.207062,79.782639 140.443695,78.567207 140.890152,77.434479 
	C146.253189,63.827248 151.807312,50.292019 156.923431,36.593029 
	C158.240005,33.067760 160.311172,32.691368 163.321823,32.909317 
	C166.286011,33.123913 169.282669,32.027439 170.899231,36.365665 
	C176.409439,51.152920 182.399261,65.761444 188.573959,81.368103 
	C184.864288,81.368103 181.562164,81.800201 178.477188,81.169777 
	C177.114532,80.891312 175.693466,78.614227 175.178284,76.969093 
	C174.231186,73.944809 172.729416,72.613335 169.480698,72.984016 
	C167.016220,73.265221 164.434647,73.386711 162.009155,72.971634 
	C156.035797,71.949387 152.601151,74.209457 151.327744,80.480850 
M165.298996,50.261005 
	C164.849609,49.502556 164.400238,48.744106 163.639359,47.459930 
	C161.426743,53.293049 159.461090,58.475136 157.397339,63.915794 
	C162.049698,63.915794 166.029083,63.915794 170.538895,63.915794 
	C168.767120,59.235119 167.198746,55.091728 165.298996,50.261005 
z"/>
<path fill="#F9FCFC" opacity="1.000000" stroke="none" 
	d="
M422.089417,57.804081 
	C422.324585,60.748329 422.280304,63.286446 422.854004,65.676208 
	C423.955688,70.265213 427.295410,72.046776 431.815247,71.899139 
	C436.197113,71.756020 439.437195,69.606232 439.939728,65.282013 
	C440.627808,59.360706 440.558441,53.345356 440.692230,47.367599 
	C440.795807,42.740582 440.712921,38.109390 440.712921,33.208313 
	C444.486694,33.208313 447.870361,33.208313 451.380127,33.208313 
	C451.380127,44.064259 452.024750,54.719604 451.204285,65.260918 
	C450.331543,76.473488 442.563446,82.461815 431.102875,82.362373 
	C419.960632,82.265678 412.222931,76.152458 411.425659,65.266174 
	C410.652863,54.713795 411.258057,44.060497 411.258057,33.191986 
	C414.771729,33.191986 418.042450,33.191986 422.089111,33.191986 
	C422.089111,41.170696 422.089111,49.250816 422.089417,57.804081 
z"/>
<path fill="#F3F9F9" opacity="1.000000" stroke="none" 
	d="
M369.599274,47.443031 
	C377.761627,43.121922 385.237427,43.827156 393.083740,49.706764 
	C393.083740,42.918320 393.083740,36.771137 393.083740,30.372932 
	C395.395111,30.372932 396.985596,30.372932 398.910645,30.372932 
	C398.910645,47.248489 398.910645,64.116402 398.910645,80.940544 
	C394.878113,82.744232 393.998260,80.164368 393.716736,76.982307 
	C381.901062,84.488899 371.379211,83.743950 365.048401,75.175797 
	C358.693420,66.574928 360.509827,54.798435 369.599274,47.443031 
M368.890472,56.689827 
	C368.395996,58.091110 367.722687,59.456970 367.436920,60.899597 
	C365.927185,68.521439 370.725403,75.336037 378.338959,76.514496 
	C386.248138,77.738731 392.878754,72.548836 393.605927,64.564857 
	C394.127045,58.842712 390.997650,53.357601 385.986847,51.210434 
	C379.943787,48.620926 374.030884,50.313286 368.890472,56.689827 
z"/>
<path fill="#F3F9F9" opacity="1.000000" stroke="none" 
	d="
M288.491272,44.739101 
	C301.862579,44.765373 309.799744,53.137802 308.394836,65.856293 
	C298.409637,65.856293 288.352631,65.856293 278.025482,65.856293 
	C278.729218,71.124245 281.187073,74.388893 285.648346,75.960701 
	C290.572296,77.695503 295.020996,76.738235 299.261902,73.600235 
	C301.391907,72.024162 304.089600,71.215340 307.559082,69.572525 
	C304.981079,78.849686 296.843903,83.278458 287.225372,82.075050 
	C278.101044,80.933479 271.954163,73.497864 271.894653,63.530251 
	C271.833130,53.227325 277.733307,46.395565 288.491272,44.739101 
M280.221008,54.830914 
	C279.425720,56.558788 278.630432,58.286663 277.630463,60.459209 
	C286.408081,60.459209 294.428131,60.459209 302.887207,60.459209 
	C301.725128,55.328056 299.074036,52.044209 294.367676,50.676289 
	C289.161133,49.162991 284.512573,50.205452 280.221008,54.830914 
z"/>
<path fill="#F3F9F9" opacity="1.000000" stroke="none" 
	d="
M321.820068,81.401901 
	C320.544861,80.699936 318.952942,80.007309 318.942841,79.292305 
	C318.785431,68.164711 318.832703,57.034210 318.832703,45.904381 
	C319.234131,45.543125 319.635590,45.181870 320.037018,44.820614 
	C321.684540,45.995102 323.332031,47.169590 325.391479,48.637733 
	C327.401489,47.749439 330.508575,45.667454 333.891449,45.014614 
	C343.909027,43.081379 351.362793,48.991772 351.919769,59.261818 
	C352.306763,66.396942 351.994263,73.569992 351.994263,81.062454 
	C350.143677,81.062454 348.415619,81.062454 346.157867,81.062454 
	C346.157867,74.774567 346.220154,68.663292 346.142395,62.553799 
	C346.040833,54.570114 342.530151,50.252850 336.212189,50.152836 
	C329.629852,50.048641 325.003326,54.984642 324.768066,62.625530 
	C324.609161,67.785706 324.870483,72.961761 324.607117,78.113495 
	C324.549164,79.246666 323.066071,80.306969 321.820068,81.401901 
z"/>
<path fill="#EEF7F7" opacity="1.000000" stroke="none" 
	d="
M195.698273,52.268383 
	C195.698273,49.833534 195.698273,47.861393 195.698273,45.982224 
	C200.223007,44.137516 200.994400,46.653362 201.084564,50.591217 
	C205.616745,46.275944 210.552170,44.696804 216.517822,45.655941 
	C216.614243,47.306580 216.698029,48.741066 216.772247,50.011990 
	C216.266922,50.391853 216.022018,50.733521 215.746353,50.760479 
	C203.999008,51.909451 201.618332,54.544342 201.571121,66.538399 
	C201.552795,71.194443 201.568130,75.850624 201.568130,81.106369 
	C199.701202,81.220558 197.991028,81.325165 195.698257,81.465401 
	C195.698257,71.632042 195.698257,62.181564 195.698273,52.268383 
z"/>
<path fill="#F1F8F8" opacity="1.000000" stroke="none" 
	d="
M231.040619,48.789116 
	C231.781250,49.170467 232.773926,49.458469 233.141449,49.101982 
	C236.850418,45.504421 241.393692,45.294464 246.581314,45.422607 
	C246.708359,47.189945 246.819489,48.736076 246.950058,50.552364 
	C245.666946,50.710030 244.721649,50.883854 243.769836,50.934067 
	C235.741959,51.357601 232.172104,54.957527 231.830399,63.150909 
	C231.705795,66.139008 231.786880,69.135849 231.781296,72.128716 
	C231.776016,74.950676 231.780151,77.772652 231.780151,81.135040 
	C229.892349,81.225571 228.171494,81.308090 226.134918,81.405762 
	C226.134918,69.311432 226.134918,57.607319 226.134918,45.577404 
	C228.610046,45.335747 231.001434,44.614082 231.040619,48.789116 
z"/>
<path fill="#F1F8F8" opacity="1.000000" stroke="none" 
	d="
M261.912079,60.007790 
	C261.912079,67.267166 261.912079,74.028015 261.912079,81.095757 
	C259.825836,81.095757 258.101624,81.095757 256.169220,81.095757 
	C256.169220,69.310867 256.169220,57.760307 256.169220,45.782486 
	C257.867340,45.782486 259.560730,45.782486 261.912079,45.782486 
	C261.912079,50.358849 261.912079,54.934059 261.912079,60.007790 
z"/>
<path fill="#EBF5F5" opacity="1.000000" stroke="none" 
	d="
M261.669250,31.311378 
	C264.333466,34.347557 264.360626,37.205185 260.990906,38.900246 
	C259.622803,39.588455 256.767090,39.128899 255.691666,38.070488 
	C254.657608,37.052761 254.256317,33.496208 254.973053,32.974987 
	C256.665466,31.744249 259.188202,31.655241 261.669250,31.311378 
z"/>
<path fill="#038181" opacity="1.000000" stroke="none" 
	d="
M53.675049,68.666122 
	C48.250309,74.742828 43.061043,80.556313 36.875320,87.486107 
	C36.875320,82.218643 36.875301,78.193253 36.875328,74.167862 
	C36.875378,66.350235 36.795948,58.531075 36.946381,50.716339 
	C36.974560,49.252411 37.480473,47.137943 38.513824,46.454529 
	C49.603539,39.120255 60.841633,32.010242 72.045448,24.848763 
	C73.124924,24.158758 74.247238,23.535774 76.137062,22.414499 
	C76.137062,29.572630 76.259560,35.962646 76.032906,42.340260 
	C75.987999,43.603939 74.759041,44.957775 73.810036,46.035801 
	C67.216187,53.526119 60.552090,60.954597 53.675049,68.666122 
z"/>
<path fill="#058282" opacity="1.000000" stroke="none" 
	d="
M61.490391,70.171249 
	C58.650066,70.188057 58.469528,69.349403 59.994888,67.654678 
	C65.075890,62.009499 70.117256,56.328644 75.784180,49.977386 
	C75.784180,57.104862 75.784180,63.376343 75.784180,70.172935 
	C71.123772,70.172935 66.528137,70.172935 61.490391,70.171249 
z"/>
<path fill="#0C8585" opacity="1.000000" stroke="none" 
	d="
M165.464676,50.604675 
	C167.198746,55.091728 168.767120,59.235119 170.538895,63.915794 
	C166.029083,63.915794 162.049698,63.915794 157.397339,63.915794 
	C159.461090,58.475136 161.426743,53.293049 163.639359,47.459930 
	C164.400238,48.744106 164.849609,49.502556 165.464676,50.604675 
z"/>
<path fill="#068383" opacity="1.000000" stroke="none" 
	d="
M369.062378,56.347534 
	C374.030884,50.313286 379.943787,48.620926 385.986847,51.210434 
	C390.997650,53.357601 394.127045,58.842712 393.605927,64.564857 
	C392.878754,72.548836 386.248138,77.738731 378.338959,76.514496 
	C370.725403,75.336037 365.927185,68.521439 367.436920,60.899597 
	C367.722687,59.456970 368.395996,58.091110 369.062378,56.347534 
z"/>
<path fill="#118888" opacity="1.000000" stroke="none" 
	d="
M280.465790,54.545017 
	C284.512573,50.205452 289.161133,49.162991 294.367676,50.676289 
	C299.074036,52.044209 301.725128,55.328056 302.887207,60.459209 
	C294.428131,60.459209 286.408081,60.459209 277.630463,60.459209 
	C278.630432,58.286663 279.425720,56.558788 280.465790,54.545017 
z"/>
</svg>